<svg id="Capa_1" enable-background="new 0 0 511.768 511.768" height="512" viewBox="0 0 511.768 511.768" width="512" xmlns="http://www.w3.org/2000/svg"><g><path d="m250.268 369.213c23.861-23.572 37.002-55.024 37.002-88.563 0-28.546-9.91-56.439-27.904-78.54-2.675-3.287-6.619-5.173-10.821-5.173h-120.292c-4.143 0-7.5 3.357-7.5 7.5s3.357 7.5 7.5 7.5h119.77c15.639 19.377 24.247 43.762 24.247 68.713 0 12.141-1.962 23.969-5.73 35.133l-7.513-2.531c-28.813-9.706-59.735-11.381-89.427-4.841-26.778 5.897-54.689 4.453-80.717-4.176l-34.938-11.583c-.425-3.958-.647-7.962-.647-12.002 0-24.951 8.607-49.334 24.247-68.713h18.745c4.143 0 7.5-3.357 7.5-7.5s-3.357-7.5-7.5-7.5h-19.266c-4.201 0-8.143 1.883-10.814 5.165-17.999 22.104-27.911 50-27.911 78.548 0 33.097 12.717 64.202 35.81 87.586 17.85 18.075 40.389 29.999 64.983 34.672v13.524c0 4.143 3.357 7.5 7.5 7.5s7.5-3.357 7.5-7.5v-11.6c2.369.161 4.75.265 7.145.294.522.007 1.043.01 1.563.01 4.144 0 8.256-.202 12.327-.599v65.506c0 2.903 1.676 5.546 4.301 6.783l42.289 19.941h-114.217l42.29-19.941c2.625-1.237 4.301-3.88 4.301-6.783v-21.643c0-4.143-3.357-7.5-7.5-7.5s-7.5 3.357-7.5 7.5v16.887l-49.289 23.242c-5.203 2.454-7.96 8.089-6.702 13.703s6.154 9.535 11.907 9.535h139.203c5.753 0 10.648-3.921 11.906-9.535s-1.499-11.249-6.702-13.703l-49.288-23.242v-63.143c22.553-5.026 43.286-16.279 60.142-32.931zm-87.474 20.923c-.457 0-.918-.003-1.376-.008-29.118-.354-56.335-11.872-76.638-32.432-13.412-13.582-22.839-30.133-27.696-48.2l27.078 8.977c28.59 9.479 59.248 11.064 88.664 4.586 27.03-5.954 55.182-4.43 81.411 4.407l6.513 2.194c-5.301 10.569-12.356 20.318-21.024 28.881-20.656 20.407-47.927 31.595-76.932 31.595z"/><path d="m458.754 221.107-39.655-99.005v-101.976c0-11.098-9.028-20.126-20.125-20.126h-67.784c-11.098 0-20.126 9.028-20.126 20.126v101.977l-30.961 77.3c-1.54 3.846.328 8.211 4.173 9.751 3.845 1.539 8.211-.327 9.751-4.173l12.202-30.464h117.706l20.896 52.169c4.855 12.122 8.414 24.592 10.681 37.305h-145.742c-4.143 0-7.5 3.357-7.5 7.5s3.357 7.5 7.5 7.5h147.811c.59 6.099.889 12.244.889 18.424v84.241c0 4.143 3.357 7.5 7.5 7.5s7.5-3.357 7.5-7.5v-84.241c-.001-26.259-4.951-51.933-14.716-76.308zm-127.564-206.107h67.784c2.826 0 5.125 2.3 5.125 5.126v40.255h-78.035v-40.255c0-2.826 2.3-5.126 5.126-5.126zm-18.953 144.517 13.289-33.179c.355-.888.538-1.834.538-2.789v-48.168h78.035v48.168c0 .955.183 1.901.538 2.789l13.29 33.179z"/><path d="m465.969 406.117c-4.143 0-7.5 3.357-7.5 7.5v29.835h-186.774v-56.403c0-4.143-3.357-7.5-7.5-7.5s-7.5 3.357-7.5 7.5v96.623c0 15.492 12.604 28.096 28.096 28.096h160.583c15.492 0 28.096-12.604 28.096-28.096v-70.055c-.001-4.142-3.358-7.5-7.501-7.5zm-20.595 90.651h-160.583c-7.221 0-13.096-5.875-13.096-13.096v-25.22h186.774v25.22c0 7.221-5.875 13.096-13.095 13.096z"/></g></svg>